<?xml version="1.0" encoding="UTF-8"?>
<svg xmlns="http://www.w3.org/2000/svg" id="a" width="865.76" height="682.89" viewBox="0 0 865.76 682.89">
  <path d="M606.1,642.67c7.42-3.41,14.72-7.19,21.89-11.36,6.72-3.91,13.26-8.12,19.62-12.62,22.5-15.88,40.93-36.86,53.79-61.22,80.4-150.64,62.24-372.76-92.6-468.03-71.57-44.03-174.58-71.89-251.94-26.68-62.74,36.69-101.19,105.74-133.01,168.56-19.99,39.51-36.46,82.04-61.1,119-31.96,47.94-67.14,111.97-31.62,167.67,42.56,66.71,118.38,101.56,192.42,124.51l282.55,.17Z" fill="#ff4c3040"></path>
  <g opacity=".9">
    <path d="M606.1,642.67c7.42-3.41,14.72-7.19,21.89-11.36,6.72-3.91,13.26-8.12,19.62-12.62,22.5-15.88,40.93-36.86,53.79-61.22,80.4-150.64,62.24-372.76-92.6-468.03-71.57-44.03-174.58-71.89-251.94-26.68-62.74,36.69-101.19,105.74-133.01,168.56-19.99,39.51-36.46,82.04-61.1,119-31.96,47.94-67.14,111.97-31.62,167.67,42.56,66.71,118.38,101.56,192.42,124.51l282.55,.17Z" fill="#fff"></path>
  </g>
  <path d="M606.21,643.17h-.11l-282.63-.17-.07-.02c-60.54-18.77-146.38-52.12-192.69-124.72-16.07-25.2-19.2-53.71-9.55-87.15,8.69-30.13,26.57-59.15,41.18-81.06,16.88-25.32,30.11-53.67,42.91-81.09,5.84-12.51,11.88-25.45,18.16-37.86,31.64-62.47,70.64-132.18,133.2-168.77,35.39-20.68,79.82-27.66,128.47-20.19,41.08,6.31,85.11,22.96,123.98,46.87,71.89,44.23,119.74,120.09,134.75,213.6,13.84,86.22-1.46,179.2-41.97,255.09-12.84,24.32-31.49,45.55-53.94,61.39-6.37,4.51-12.98,8.76-19.66,12.64-7.07,4.11-14.45,7.93-21.93,11.38l-.1,.05Zm-282.59-1.17l282.37,.17c7.42-3.42,14.74-7.22,21.75-11.29,6.65-3.87,13.24-8.11,19.58-12.6,22.32-15.76,40.87-36.87,53.64-61.05,79.65-149.24,61.52-372.65-92.42-467.37-69.96-43.04-172.75-72.65-251.43-26.67-62.33,36.45-101.24,106.01-132.82,168.35-6.27,12.4-12.31,25.33-18.15,37.83-12.81,27.45-26.06,55.83-42.98,81.22-34.93,52.39-65.99,113.21-31.61,167.12,46.12,72.29,131.69,105.55,192.07,124.28Z" fill="#002346"></path>
  <g>
    <path d="M412.48,178.61h-.01c-.33,0-.59-.28-.58-.61l2.02-91.64c0-.33,.27-.59,.6-.59h.01c.33,0,.59,.28,.58,.61l-2.02,91.64c0,.33-.27,.59-.6,.59Z" fill="#002346"></path>
    <g>
      <path d="M412.99,126.63c21.72-17.45,41.94,25.32,63.66,7.85,.29-11.54,.57-23.07,.86-34.61-21.72,17.47-41.94-25.3-63.66-7.85-.29,11.54-.57,23.07-.86,34.61Z" fill="#001f80"></path>
      <g opacity=".2">
        <path d="M477.51,99.87c-1.84,1.48-3.67,2.53-5.5,3.22,.09,.39,.17,.77,.24,1.16,.66,3.89-.46,7.64-2.71,10.49-4,5.06-10.93,6.73-17.3,6.59-5.09-.12-10.22-1.22-15.3-2-5.48-.84-11.16-1.55-16.49-.54-2.79,.53-5.27,1.61-7.35,3.23-.04,1.54-.08,3.07-.11,4.61,21.72-17.45,41.94,25.32,63.66,7.85,.29-11.54,.57-23.07,.86-34.61h0Z"></path>
      </g>
      <path d="M445.38,113.63c-10.53-6.36-21.06-12.78-31.97-4,.15-5.87,.29-11.75,.44-17.62,10.91-8.77,21.44-2.35,31.97,4-.15,5.87-.29,11.75-.44,17.62Z" fill="#fff"></path>
      <path d="M445.64,103.06c-4.64-2.8-9.27-5.61-13.94-7.13,.06-2.35,.12-4.7,.18-7.05-1.27-.42-2.55-.73-3.83-.93-.06,2.35-.12,4.7-.18,7.05-4.68-.72-9.39,.2-14.19,4.05-.03,1.17-.06,2.35-.09,3.52,4.79-3.85,9.51-4.77,14.19-4.05-.06,2.35-.12,4.7-.18,7.05,1.28,.2,2.56,.52,3.83,.93,.06-2.35,.12-4.7,.18-7.05,4.67,1.52,9.31,4.33,13.94,7.13,.03-1.17,.06-2.35,.09-3.52Z" fill="#ff161f"></path>
      <g opacity=".2">
        <path d="M416.23,92.08l-.31,27.55s3.14-21.77,.31-27.55Z"></path>
      </g>
      <path d="M413.79,94.06c-.03,1.28-.06,2.56-.1,3.84,2.38-1.91,4.74-3.1,7.09-3.73-2.32-.65-4.65-.74-6.99-.1h0Z" fill="#001f80"></path>
      <path d="M417.77,89.47s-.07,.04-.1,.06c3.02,.13,6.01,1.34,8.99,3.27,.04-1.67,.08-3.34,.12-5-2.98-.26-5.98,.19-9.01,1.68h0Z" fill="#001f80"></path>
      <path d="M424.57,93.59c-3.54-1.86-7.11-2.58-10.73-1.59-.01,.46-.02,.92-.03,1.38,2.75-.75,5.48-.51,8.19,.48,.86-.16,1.72-.25,2.57-.27Z" fill="#001f80"></path>
      <path d="M434.91,101.92c3.5,3.53,6.99,7.62,10.47,11.71,.01-.46,.02-.92,.03-1.38-2.66-3.12-5.31-6.24-7.97-9.11-.84-.43-1.69-.84-2.54-1.21h.01Z" fill="#ff161f"></path>
      <path d="M413.45,107.6c.03-1.28,.06-2.56,.1-3.84,2.38-1.91,4.74-3.1,7.09-3.73-2.38,1.9-4.77,4.37-7.18,7.57h-.01Z" fill="#001f80"></path>
      <path d="M417.33,107.12s-.07,.03-.1,.05c3.1-3.2,6.18-5.33,9.24-6.73-.04,1.67-.08,3.34-.12,5.01-2.98-.26-5.98,.19-9.01,1.68h0Z" fill="#001f80"></path>
      <path d="M424.37,99.48c-3.62,2.06-7.27,5.25-10.96,10.13,.85-.68,1.7-1.27,2.55-1.78,3.54-3.96,7.05-6.48,10.53-8.05v-.24c-.71-.06-1.42-.09-2.13-.06h.01Z" fill="#ff161f"></path>
      <path d="M445.77,98.06c-.03,1.28-.06,2.56-.1,3.84-2.3-1.39-4.59-2.78-6.9-4.01,2.33-.04,4.66,.07,6.99,.17h.01Z" fill="#001f80"></path>
      <path d="M442.02,93.74s.07,.04,.1,.06c-3.02-.08-6.05-.01-9.08,.53,.04-1.67,.08-3.34,.12-5.01,2.96,1.11,5.91,2.69,8.86,4.41h0Z" fill="#001f80"></path>
      <path d="M445.81,96.01c-.79-.48-1.58-.95-2.37-1.43-3.46-.15-6.93-.18-10.41,.42v.2c.73,.27,1.45,.57,2.18,.9,3.55-.39,7.08-.24,10.61-.09h0Z" fill="#ff161f"></path>
      <path d="M445.43,111.61c.03-1.28,.06-2.56,.1-3.84-2.3-1.39-4.59-2.78-6.9-4.01,2.27,2.51,4.53,5.18,6.8,7.85Z" fill="#001f80"></path>
      <path d="M441.58,111.39s.07,.04,.1,.05c-2.94-3.41-5.88-6.68-8.83-9.47-.04,1.67-.08,3.34-.12,5.01,2.96,1.11,5.91,2.69,8.86,4.41h-.01Z" fill="#001f80"></path>
    </g>
    <g>
      <polygon points="452.65 114.27 453.19 116.03 454.94 116.03 453.52 117.12 454.06 118.88 452.65 117.79 451.23 118.88 451.77 117.12 450.35 116.03 452.1 116.03 452.65 114.27" fill="#ff161f"></polygon>
      <path d="M454.34,119.28l-1.7-1.3-1.7,1.3,.65-2.11-1.7-1.3h2.1l.65-2.11,.65,2.11h2.1l-1.7,1.3,.65,2.11h0Zm-1.7-1.69l1.14,.87-.43-1.41,1.14-.87h-1.4l-.43-1.41-.43,1.41h-1.4l1.14,.87-.43,1.41,1.14-.87h-.04Z" fill="#fff"></path>
    </g>
    <g>
      <polygon points="459.48 107.05 460.02 108.81 461.77 108.81 460.36 109.9 460.9 111.65 459.48 110.57 458.07 111.65 458.61 109.9 457.19 108.81 458.94 108.81 459.48 107.05" fill="#ff161f"></polygon>
      <path d="M461.18,112.06l-1.7-1.3-1.7,1.3,.65-2.11-1.7-1.3h2.1l.65-2.11,.65,2.11h2.1l-1.7,1.3,.65,2.11h0Zm-1.7-1.69l1.14,.87-.43-1.41,1.14-.87h-1.4l-.43-1.41-.43,1.41h-1.4l1.14,.87-.43,1.41,1.14-.87h-.04Z" fill="#fff"></path>
    </g>
    <g>
      <polygon points="465.31 112.33 465.85 114.09 467.6 114.09 466.19 115.17 466.73 116.93 465.31 115.84 463.9 116.93 464.44 115.17 463.02 114.09 464.77 114.09 465.31 112.33" fill="#ff161f"></polygon>
      <path d="M467.01,117.34l-1.7-1.3-1.7,1.3,.65-2.11-1.7-1.3h2.1l.65-2.11,.65,2.11h2.1l-1.7,1.3,.65,2.11h0Zm-1.7-1.69l1.14,.87-.43-1.41,1.14-.87h-1.4l-.43-1.41-.43,1.41h-1.4l1.14,.87-.43,1.41,1.14-.87h-.04Z" fill="#fff"></path>
    </g>
    <g>
      <polygon points="459.48 125.57 460.05 127.41 461.88 127.41 460.4 128.54 460.96 130.38 459.48 129.25 458 130.38 458.56 128.54 457.08 127.41 458.91 127.41 459.48 125.57" fill="#ff161f"></polygon>
      <path d="M461.24,130.79l-1.76-1.35-1.76,1.35,.67-2.19-1.76-1.35h2.18l.67-2.19,.67,2.19h2.18l-1.76,1.35,.67,2.19Zm-1.76-1.74l1.2,.92-.46-1.49,1.2-.92h-1.49l-.46-1.49-.46,1.49h-1.49l1.2,.92-.46,1.49,1.2-.92h.02Z" fill="#fff"></path>
    </g>
  </g>
  <g>
    <path d="M406.23,362.42s35.09-3.19,39.08,26.32l.68,69.68c.09,9.55-1.47,19.05-4.73,28.03-2.63,7.26-6.41,16.06-11.5,24.32l-93.31-51.04-7.18,11.56s-9.96,17.27-19.58,9.08c-1.87-1.59-3.18-3.73-3.87-6.08-1.92-6.51-5.01-24.72,1.92-64.81,0,0,1.99-41.87,27.12-46.26l19.09-2.92,52.29,2.12h-.01Z" fill="#ff4d30"></path>
    <path d="M429.94,511.44l-93.31-51.04-6.93,11.16c-.23,.4-5.93,10.16-13.06,11.39-2.59,.45-5.03-.29-7.27-2.2-1.89-1.61-3.28-3.79-4.03-6.32-1.77-6-5.13-24.35,1.91-65.04,.01-.36,2.29-42.26,27.53-46.67l19.1-2.92,52.35,2.11c1.35-.11,35.63-2.45,39.58,26.75l.69,69.74c.09,9.75-1.51,19.24-4.76,28.21-3.32,9.15-7.21,17.37-11.55,24.41l-.25,.4Zm-93.66-52.37l.42,.23,92.89,50.81c4.21-6.89,7.98-14.91,11.21-23.82,3.21-8.85,4.79-18.22,4.7-27.86l-.68-69.68c-3.87-28.63-38.19-25.86-38.53-25.83l-.03-.32v.32s-.02-.21-.02-.21v.21s-52.3-2.12-52.3-2.12l-18.99,2.91c-24.44,4.27-26.68,45.38-26.7,45.79-7,40.54-3.69,58.71-1.94,64.64,.69,2.34,1.97,4.36,3.71,5.84,2,1.7,4.17,2.37,6.45,1.97,6.66-1.15,12.32-10.83,12.37-10.92l7.44-11.98Z" fill="#002346"></path>
  </g>
  <g>
    <path d="M463.65,507.18c-.8,0,1.99,104.08,11.17,135.58h41.87l1.83-57.91c.03-1,1.44-1.2,1.75-.25l19.15,58.56h40.28s-3.66-79.1-12.99-144.23l-23.3-5.31-48.65,14.75-31.1-1.2h0Z" fill="#ff4d30"></path>
    <path d="M580.22,642.66h-41.17l-.11-.34-19.15-57.56c-.1-.29-.36-.28-.43-.27-.08,.01-.33,.07-.34,.38l-1.84,58.39h-42.73l-.11-.36c-4.84-16.6-7.74-52.27-9.32-79.27-1.47-25.11-2.44-55.87-1.78-56.74l.22-.22h.22s31.02,1.21,31.02,1.21l48.7-14.76,.13,.03,23.63,5.38,.05,.34c9.23,64.41,12.96,143.49,13,144.28l.02-.48Zm-40.44,0h39.39c-.34-6.98-4.12-81.78-12.91-143.32l-22.83-5.2-48.6,14.74h-.08s-30.68-1.19-30.68-1.19c-.59,7.04,2.36,103.8,11.13,134.57h41.01l1.81-57.42c.02-.69,.51-1.24,1.2-1.34,.69-.09,1.31,.29,1.53,.95l19.04,58.22Z" fill="#002346"></path>
  </g>
  <g>
    <path d="M385.22,355.08c-14.5,6.12-31.22-.67-37.35-15.18l-1.34-3.18-6.65-15.74-.04-.11c-6.12-14.5,.67-31.22,15.17-37.35,3.62-1.53,7.38-2.25,11.07-2.25,11.12,0,21.68,6.54,26.27,17.43l8.04,19.03c6.12,14.5-.67,31.22-15.18,37.35h0Z" fill="#f2b3c1"></path>
    <path d="M374.14,357.84c-3.7,0-7.4-.72-10.92-2.15-7.18-2.92-12.79-8.45-15.8-15.59l-8.03-19.03c-6.22-14.73,.71-31.78,15.44-37.99,3.61-1.52,7.4-2.29,11.27-2.29,11.69,0,22.19,6.96,26.73,17.73l8.04,19.03c3.01,7.14,3.06,15.02,.15,22.2-2.92,7.18-8.46,12.79-15.59,15.8h0c-3.63,1.53-7.45,2.3-11.27,2.3h-.02Zm-8.05-76.07c-3.74,0-7.4,.74-10.88,2.21-14.22,6-20.91,22.46-14.91,36.69l.05,.11,7.99,18.91c2.91,6.89,8.33,12.24,15.26,15.05,6.93,2.82,14.54,2.76,21.43-.14h0c6.89-2.91,12.24-8.33,15.05-15.26,2.82-6.93,2.77-14.54-.14-21.43l-8.04-19.03c-4.39-10.4-14.52-17.12-25.81-17.12h0Z" fill="#002346"></path>
  </g>
  <g>
    <path d="M359.95,353.85s1.22,6.98,1.62,12.56c-.67,.34,3.74,7.73,14.19,10.78,4.28,1.25,8.9,.82,12.84-1.27,4.23-2.24,9.31-6.27,10.85-13.1,0,0-3.43-2.1-4.11-6.43l-1.05-7.33s-13.18,14.96-34.34,4.79h0Z" fill="#f2b3c1"></path>
    <path d="M380.66,378.39c-1.68,0-3.37-.24-5.03-.72-9.63-2.81-14.47-9.4-14.62-11.02-.01-.16,0-.28,.05-.38-.4-5.47-1.59-12.27-1.6-12.34-.03-.18,.04-.37,.19-.48,.15-.11,.35-.13,.52-.05,20.55,9.88,33.62-4.52,33.75-4.67,.13-.15,.33-.21,.52-.15s.32,.21,.35,.41l1.05,7.33c.63,4.03,3.84,6.06,3.88,6.08,.18,.11,.27,.33,.23,.54-1.6,7.09-6.92,11.22-11.1,13.43-2.55,1.35-5.34,2.03-8.18,2.03h0Zm-18.64-11.77c.25,1.1,4.59,7.36,13.89,10.07,4.21,1.23,8.64,.79,12.47-1.23,3.93-2.08,8.91-5.92,10.52-12.44-.89-.65-3.45-2.79-4.04-6.58l-.91-6.34c-3.03,2.86-15.33,12.74-33.34,4.59,.34,2.1,1.16,7.33,1.47,11.67,0,.09-.01,.18-.05,.26h-.01Z" fill="#002346"></path>
  </g>
  <g>
    <path d="M425.06,416.14c2.05-.34,3.93,1.21,3.96,3.29l1.53,96.91s4.79,76.17,.4,126.01h-48.25l-3.99-58.62-9.97,59.42h-45.06l-.8-85.74,4.79-40.68,2.39-100.49s44.72,8.34,95-.11h0Z" fill="#ff4c3040"></path>
    <path d="M369.17,643.66h-45.98l-.51-55.17c-.19-20.69,.92-41.37,3.34-61.92l1.16-9.89,2.4-101.03,.58,.11c.45,.08,45.22,8.22,94.82-.11h0c1.13-.19,2.27,.12,3.14,.85,.87,.73,1.38,1.79,1.4,2.93l1.53,96.91c.05,.74,4.74,76.75,.4,126.06l-.04,.46h-49.18l-.03-.47-3.7-54.38-9.34,55.64h.01Zm-44.99-1h44.14l10.6-63.19,4.25,62.4h47.33c4.26-49.25-.39-124.72-.44-125.48l-1.53-96.94c-.01-.84-.39-1.64-1.04-2.17-.65-.54-1.5-.77-2.34-.63-46.73,7.85-89.18,1.13-94.59,.21l-2.38,99.91-2.21,18.75c-1.72,14.63-2.51,29.36-2.38,44.09l.59,63.06h0Z" fill="#002346"></path>
  </g>
  <path d="M372.7,524.55c-28.45,0-45.09-6.02-45.35-6.12s-.39-.38-.29-.64,.39-.39,.64-.29c.38,.14,39.01,14.09,99.54-.84,.28-.07,.54,.1,.61,.37,.07,.27-.1,.54-.37,.6-21.14,5.22-39.64,6.92-54.78,6.92Z" fill="#002346"></path>
  <path d="M378.72,584.24c-.28,0-.5-.22-.5-.5v-5.98c0-.14,.06-.28,.17-.37l11.17-9.97c.21-.18,.52-.17,.71,.04,.18,.21,.17,.52-.04,.71l-11,9.82v5.76c0,.28-.22,.5-.5,.5h-.01Z" fill="#002346"></path>
  <g>
    <path d="M410.77,362.53l-2.09,66.86c-.03,1.12,.83,2.06,1.95,2.12l11.01,.58c1.16,.06,2.15-.86,2.16-2.02l1.02-65.43s-5.93-2.39-14.06-2.11h0Z" fill="#ff4c3040"></path>
    <path d="M421.76,432.6h-.14l-11.01-.58c-1.38-.07-2.46-1.25-2.42-2.63l2.1-67.33,.47-.02c8.16-.29,14.02,2.05,14.26,2.15l.32,.13v.34l-1.02,65.43c-.01,.7-.3,1.35-.81,1.83-.48,.45-1.09,.69-1.74,.69h-.01Zm-10.5-69.59l-2.07,66.39c-.03,.84,.63,1.56,1.47,1.6l11.01,.58c.42,.02,.83-.12,1.14-.42,.31-.29,.49-.69,.49-1.11l1.01-65.08c-1.29-.46-6.42-2.11-13.07-1.97h.02Z" fill="#002346"></path>
  </g>
  <g>
    <circle cx="416.6" cy="432.6" r="4.79" fill="#ff4c3040"></circle>
    <path d="M416.6,437.89c-2.91,0-5.29-2.37-5.29-5.29s2.37-5.29,5.29-5.29,5.29,2.37,5.29,5.29-2.37,5.29-5.29,5.29Zm0-9.57c-2.36,0-4.29,1.92-4.29,4.29s1.92,4.29,4.29,4.29,4.29-1.92,4.29-4.29-1.92-4.29-4.29-4.29Z" fill="#002346"></path>
  </g>
  <path d="M306.14,455.44c-.11,0-.22-.04-.32-.11-.21-.17-.25-.49-.07-.7l13.96-17.15c.17-.21,.49-.25,.7-.07,.21,.17,.25,.49,.07,.7l-13.96,17.15c-.1,.12-.24,.18-.39,.18h.01Z" fill="#ff4d30"></path>
  <g>
    <path d="M335.25,363.22v62c0,1.63,1.37,2.92,2.99,2.83l8.67-.48c1.51-.08,2.69-1.34,2.68-2.85l-.35-63.73-13.99,2.22h0Z" fill="#ff4c3040"></path>
    <path d="M338.08,428.56c-.86,0-1.66-.32-2.29-.91-.67-.64-1.04-1.5-1.04-2.42v-62.43l14.99-2.38,.36,64.31c0,1.78-1.38,3.25-3.15,3.35l-8.67,.48h-.2Zm-2.33-64.91v61.58c0,.65,.26,1.25,.73,1.7,.47,.45,1.09,.67,1.74,.64l8.67-.48c1.24-.07,2.21-1.1,2.21-2.35l-.35-63.14-12.99,2.06h-.01Z" fill="#002346"></path>
  </g>
  <path d="M349.21,307.09c-.14,0-.29-.06-.39-.18-.17-.21-.14-.53,.07-.7,.19-.15,4.65-3.73,10-2.49,.27,.06,.44,.33,.38,.6-.06,.27-.33,.44-.6,.38-4.88-1.12-9.1,2.26-9.14,2.29-.09,.08-.21,.11-.32,.11h0Z" fill="#002346"></path>
  <path d="M376.21,301.51l-.83-.55c.11-.17,2.79-4.08,10.22-2.43l-.22,.98c-6.72-1.5-9.08,1.86-9.17,2h0Z" fill="#ed1c24"></path>
  <ellipse cx="383.09" cy="313.4" rx="2.39" ry="2.79" transform="translate(-73.8 123.06) rotate(-16.67)" fill="#002346"></ellipse>
  <ellipse cx="355.98" cy="318.98" rx="2.39" ry="2.79" transform="translate(-76.54 115.52) rotate(-16.67)" fill="#002346"></ellipse>
  <path d="M373.13,331.42c-.12,0-.23-.04-.33-.12-.21-.18-.23-.5-.05-.7,1.15-1.35,1.66-2.61,1.5-3.77-.2-1.41-1.36-2.45-2.29-3.07-1.07-.71-1.76-1.89-1.84-3.16l-.28-4.41c-.02-.28,.19-.51,.47-.53,.3-.02,.51,.19,.53,.47l.28,4.41c.06,.97,.57,1.84,1.39,2.38,1.11,.73,2.48,1.98,2.73,3.76,.2,1.45-.38,2.98-1.73,4.56-.1,.12-.24,.17-.38,.17h0Z" fill="#002346"></path>
  <g>
    <path d="M367.03,338.26c3.16-.52,10.62-1.84,14.58-3.44,.73-.3,1.53,.26,1.49,1.05-.12,2.49-.81,6.99-4.12,9.44-1.36,1.01-3.11,1.38-4.76,1.04-2.17-.45-5.36-1.92-7.96-6.48-.37-.65,.02-1.48,.76-1.6h.01Z" fill="#fff"></path>
    <path d="M375.44,346.96c-.44,0-.88-.04-1.31-.13-2.31-.48-5.62-2.03-8.29-6.72-.26-.45-.28-1-.05-1.46,.22-.47,.66-.79,1.17-.88h0c3.04-.5,10.55-1.82,14.48-3.41,.51-.2,1.07-.14,1.52,.18,.44,.31,.68,.82,.66,1.36-.12,2.56-.84,7.25-4.32,9.81-1.12,.82-2.47,1.26-3.85,1.26h-.01Zm-8.33-8.22c-.19,.03-.35,.15-.43,.32s-.08,.37,.02,.54c2.48,4.37,5.52,5.8,7.62,6.24,1.53,.31,3.12-.03,4.37-.95,3.15-2.32,3.8-6.67,3.92-9.06,0-.2-.08-.38-.24-.49-.17-.12-.37-.14-.56-.06-4.03,1.62-11.62,2.97-14.69,3.47h-.01Z" fill="#002346"></path>
  </g>
  <g>
    <path d="M551.78,351.65l27.12,10.37s13.96,7.58,15.95,32.3l19.54,158.31s-9.97,9.97-24.72,2.79l-25.12-104.88,5.18,57.42s-45.06,15.15-110.06,1.2c0,0,3.97-115.14,10.88-146.25,.61-2.76,.21-5.64-1.17-8.11l-73.11-130.36,21.14-18.34,96.1,132.79,24.72,15.15,13.56-2.39h-.01Z" fill="#ff4c3040"></path>
    <path d="M600.22,558.51c-3.2,0-6.82-.71-10.77-2.63l-.21-.1-.05-.23-23.52-98.19,4.6,50.96-.37,.13c-.45,.15-45.94,15.04-110.33,1.21l-.41-.09v-.42c.05-1.15,4.07-115.54,10.91-146.35,.59-2.66,.19-5.41-1.12-7.75l-73.31-130.72,21.86-18.97,96.37,133.15,24.48,15,13.51-2.38,.13,.05,27.12,10.37c.2,.1,14.28,8.02,16.27,32.73l19.57,158.54-.17,.17c-.08,.08-5.66,5.52-14.52,5.52h-.04Zm-10.12-3.43c13.1,6.24,22.4-1.4,23.77-2.64l-19.51-158.06c-1.95-24.15-15.56-31.85-15.69-31.92l-26.93-10.29-13.61,2.4-25.03-15.39-95.78-132.35-20.42,17.72,72.91,130.01c1.43,2.56,1.87,5.56,1.23,8.46-6.61,29.77-10.58,138.09-10.86,145.74,60.8,12.96,104.54,.24,109.01-1.15l-5.15-57.02,.98-.16,25.07,104.65h.01Z" fill="#002346"></path>
  </g>
  <g>
    <path d="M596.64,557.76l-.81,11.53c-.11,1.57,.18,3.14,.83,4.57,1.26,2.75,3.36,7.8,4.17,12.67,0,0-6.78,3.99-.8,7.98,0,0-2.79,5.98,5.98,5.98,0,0-3.19,2.79-.8,5.18,0,0,.8,1.99,7.98-.4,0,0,8.37-3.59,9.17-8.77l1.6-15.95s-.4-5.98-4.79-12.76l-6.77-13.51s-6.4,5.01-15.77,3.47h.01Z" fill="#f2b3c1"></path>
    <path d="M607.49,606.95c-1.89,0-2.5-.66-2.68-.98-.68-.7-1.01-1.5-.98-2.38,.03-1.05,.59-1.99,1.08-2.63-2.59-.16-4.34-.94-5.21-2.3-.95-1.48-.54-3.2-.28-3.97-1.6-1.16-2.4-2.44-2.36-3.83,.06-2.27,2.37-4.01,3.21-4.58-.85-4.76-2.91-9.68-4.08-12.22-.69-1.5-1-3.17-.88-4.82l.82-11.53c0-.14,.08-.27,.19-.36,.11-.09,.25-.12,.39-.1,9.02,1.48,15.32-3.33,15.38-3.37,.12-.09,.27-.12,.42-.09,.15,.03,.27,.13,.34,.26l6.77,13.51c4.38,6.76,4.82,12.7,4.84,12.95l-1.6,16.03c-.83,5.42-9.12,9.03-9.47,9.18-2.74,.91-4.62,1.22-5.9,1.22h0Zm-1.81-1.45s1.09,1.4,7.35-.69c.04-.02,8.09-3.53,8.83-8.38l1.59-15.92h0s-.46-5.87-4.71-12.44l-6.53-13.03c-1.66,1.12-7.31,4.39-15.12,3.3l-.78,10.99c-.1,1.48,.17,2.98,.79,4.33,1.22,2.65,3.38,7.82,4.21,12.8,.03,.2-.06,.41-.24,.51-.03,.02-2.96,1.77-3.02,3.93-.03,1.11,.72,2.18,2.24,3.2,.21,.14,.28,.4,.18,.63,0,.02-.88,1.94,.06,3.41,.79,1.24,2.63,1.86,5.47,1.86,.21,0,.39,.13,.47,.32,.07,.19,.02,.41-.14,.55-.01,.01-1.47,1.31-1.52,2.76-.02,.62,.22,1.18,.74,1.7,.05,.05,.09,.1,.11,.17h.02Z" fill="#002346"></path>
  </g>
  <g>
    <path d="M401.02,220.23l-9.12-9.65c-.9-.96-1.58-2.1-1.97-3.36-1-3.24-2.43-9.95-.45-17.87,0,0-3.19-7.18,1.99-7.58,0,0-.8-7.18,5.18-6.38,0,0,1.2-3.59,4.39-2.79,0,0,2.39-9.97,10.77,0l5.58-6.38s2.39-.4,1.6,5.58v3.46c0,1.98,.54,3.92,1.54,5.64,1.24,2.12,2.77,5.46,2.83,9.02,.05,2.91-1.14,5.71-3.23,7.75-2.18,2.13-6.28,6.79-4.08,9.88l-15.04,12.68h.01Z" fill="#f2b3c1"></path>
    <path d="M401.02,220.73c-.13,0-.27-.05-.36-.16l-9.12-9.65c-.95-1.01-1.67-2.24-2.08-3.55-1.02-3.31-2.44-10.04-.5-17.97-.33-.81-1.68-4.39-.4-6.53,.49-.83,1.3-1.34,2.39-1.52-.04-1.1,.05-3.75,1.65-5.31,.92-.9,2.17-1.29,3.74-1.17,.57-1.32,2.02-3.16,4.36-2.83,.35-1.08,1.42-3.71,3.75-4.25,2.11-.5,4.58,.87,7.38,4.07l5.2-5.95c.08-.09,.18-.15,.29-.16,.07,0,.74-.1,1.36,.5,.92,.89,1.19,2.79,.81,5.65v3.39c0,1.87,.51,3.73,1.48,5.38,1.29,2.21,2.84,5.61,2.9,9.27,.05,3.01-1.18,5.97-3.38,8.11-1.88,1.84-6.03,6.41-4.02,9.24,.15,.21,.11,.5-.08,.67l-15.04,12.68c-.09,.08-.21,.12-.32,.12v-.03Zm-5.25-44.9c-1.04,0-1.87,.3-2.48,.9-1.67,1.63-1.33,4.95-1.32,4.99,.01,.13-.03,.27-.11,.37-.09,.1-.21,.17-.35,.18-1.02,.08-1.71,.44-2.1,1.1-.96,1.61,.05,4.72,.53,5.78,.04,.1,.05,.22,.03,.32-1.94,7.77-.56,14.36,.44,17.6,.36,1.17,1,2.26,1.85,3.16l8.8,9.31,14.35-12.09c-1.82-3.3,1.92-7.73,4.38-10.14,2-1.95,3.12-4.64,3.08-7.38-.06-3.44-1.54-6.67-2.76-8.78-1.05-1.8-1.61-3.84-1.61-5.89v-3.46c.44-3.33-.12-4.45-.49-4.84-.15-.15-.29-.21-.39-.24l-5.43,6.2c-.1,.11-.22,.17-.38,.17-.15,0-.28-.07-.38-.18-2.65-3.15-4.98-4.6-6.76-4.18-2.28,.53-3.13,3.94-3.14,3.98-.03,.13-.11,.24-.23,.31-.12,.07-.25,.09-.38,.06-2.7-.67-3.75,2.34-3.79,2.47-.08,.23-.3,.37-.54,.34-.28-.04-.56-.06-.82-.06h0Z" fill="#002346"></path>
  </g>
  <path d="M405.83,204.61c-.23,0-.43-.15-.49-.38-1.93-8.03,4.38-14.77,7.18-17.3,.61-.55,.81-1.4,.52-2.17-2.04-5.42-1.75-11.9-1.73-12.17,.01-.28,.25-.49,.52-.47,.28,0,.49,.25,.47,.52,0,.06-.3,6.54,1.67,11.77,.44,1.16,.13,2.44-.79,3.27-2.67,2.41-8.68,8.82-6.88,16.33,.06,.27-.1,.54-.37,.6-.04,0-.08,0-.12,0h.02Z" fill="#002346"></path>
  <path d="M396.48,197.71c-.84,0-1.68-.28-2.52-.83-2.96-1.98-4.98-7-4.98-7.52,0-.28,.22-.5,.5-.5,.26,0,.47,.2,.5,.45,.11,.45,2.06,5.45,4.95,6.99,.93,.5,1.83,.56,2.74,.18h0s2.01-1.04,1.7-2.63c-.03-.17,.02-.35,.15-.47s.31-.16,.48-.11c.09,.02,2.34,.59,3.37-2.85,.08-.26,.35-.41,.62-.34,.09,.03,2.37,.62,3.38-2.09,.05-.13,.16-.24,.29-.29,.13-.05,.29-.04,.41,.03,0,0,1.22,.59,3.65-.27,.26-.09,.55,.05,.64,.31,.09,.26-.05,.55-.31,.64-1.96,.69-3.27,.56-3.94,.39-1.08,2.31-3.03,2.42-3.93,2.33-.98,2.77-2.78,3.19-3.77,3.19h-.02c-.07,1.94-2.21,3.03-2.31,3.08-.54,.22-1.07,.33-1.6,.33v-.02Zm-6.5-8.36" fill="#002346"></path>
  <path d="M399.85,194.24c-.1,0-.21-.03-.3-.1-4.84-3.63-8.38-11.82-8.53-12.17-.11-.25,0-.55,.26-.66,.25-.11,.55,0,.66,.26,.04,.08,3.59,8.29,8.21,11.76,.22,.17,.27,.48,.1,.7-.1,.13-.25,.2-.4,.2h0Z" fill="#002346"></path>
  <path d="M403.84,191.05c-.15,0-.3-.07-.4-.2-6.39-8.39-7.24-15.12-7.28-15.4-.03-.27,.16-.52,.44-.55,.27-.03,.52,.16,.55,.44,0,.07,.87,6.76,7.08,14.91,.17,.22,.12,.53-.09,.7-.09,.07-.2,.1-.3,.1h0Z" fill="#002346"></path>
  <path d="M407.83,188.66c-.17,0-.34-.09-.44-.25-5.16-9.13-6.81-15.61-6.83-15.68-.07-.27,.1-.54,.36-.61,.26-.07,.54,.1,.61,.36,.02,.06,1.64,6.43,6.73,15.43,.14,.24,.05,.55-.19,.68-.08,.04-.16,.06-.25,.06h.01Z" fill="#002346"></path>
  <g>
    <path d="M548.39,335.1v11.56c0,3.59,3.39,4.98,3.39,4.98-4.34,8.67-12.02,10.8-18.3,10.85-6.14,.06-12.14-2.05-16.91-5.92-10.83-8.79-3.07-17.7-3.07-17.7l.4-8.77,34.49,4.98v.02Z" fill="#f2b3c1"></path>
    <path d="M533.24,363.01c-6.17,0-12.19-2.14-16.98-6.03-3.61-2.94-5.6-6.21-5.9-9.72-.39-4.48,2.08-7.84,2.66-8.56l.39-8.61c0-.14,.07-.27,.18-.36s.25-.13,.39-.11l34.49,4.98c.25,.04,.43,.25,.43,.49v11.56c0,3.22,3.05,4.51,3.08,4.52,.13,.05,.23,.16,.28,.29,.05,.13,.04,.27-.02,.4-4.55,9.1-12.71,11.08-18.75,11.13h-.25v.02Zm-18.86-32.32l-.37,8.22c0,.11-.05,.22-.12,.31-.03,.03-2.93,3.44-2.53,7.96,.28,3.23,2.15,6.26,5.54,9.02,4.68,3.8,10.58,5.9,16.59,5.8,5.66-.05,13.27-1.87,17.63-10.13-1.01-.56-3.21-2.15-3.21-5.21v-11.13l-33.52-4.84h-.01Z" fill="#002346"></path>
  </g>
  <g>
    <path d="M564.94,289.84v21.64c0,1.2-.07,2.38-.21,3.55-1.75,14.57-14.15,25.86-29.19,25.86h-.5c-16.52,0-29.91-13.39-29.91-29.91v-21.14c0-16.52,13.39-29.91,29.91-29.91h0c16.52,0,29.91,13.39,29.91,29.91h0Z" fill="#f2b3c1"></path>
    <path d="M535.54,341.39h-.5c-16.77,0-30.41-13.64-30.41-30.41v-21.14c0-16.77,13.64-30.41,30.41-30.41s30.41,13.64,30.41,30.41v21.64c0,1.2-.07,2.42-.22,3.61-1.8,14.99-14.57,26.3-29.69,26.3h0Zm-.5-80.95c-16.22,0-29.41,13.19-29.41,29.41v21.14c0,16.22,13.19,29.41,29.41,29.41h.5c14.62,0,26.95-10.93,28.7-25.42,.14-1.15,.21-2.33,.21-3.49v-21.64c0-16.22-13.19-29.41-29.41-29.41h0Z" fill="#002346"></path>
  </g>
  <g>
    <path d="M499.22,293.9l-1.27-14.82s-3.99-27.12,23.93-35.49c0,0-1.2-1.2-1.2-4.39,0,0,1.8,3.6,7.79,2.25,.91-.2,1.82-.38,2.74-.46,7.23-.69,34.67-1.62,43.3,22.54,0,0,1.6,5.18,4.79,7.58,0,0-2.39,1.6-4.39-.4,0,0,3.48,18.57-4.24,27.83l-5.7,2.62v-2.16s-6.48-2.88-9.52-8.98c-.71-1.43-1.93-2.54-3.39-3.18-2.97-1.31-7.94-3.81-11.28-7.12-.61-.6-1.37-1.04-2.2-1.26-1.95-.51-5.81-2.17-8.52-7.46-.42-.81-1.58-.82-1.98,0-1.41,2.83-4.52,7.8-10.47,11.99-.76,.54-1.33,1.31-1.6,2.2-.6,2-2.37,5.64-7.34,6.49-.92,.16-1.63,.92-1.74,1.85l-.39,3.18-5.38-.48-1.92-2.32h-.02Z" fill="#002346"></path>
    <path d="M564.97,301.65c-.09,0-.19-.03-.27-.08-.14-.09-.23-.25-.23-.42v-1.85c-1.34-.66-6.72-3.56-9.47-9.08-.64-1.29-1.76-2.34-3.14-2.95-2.79-1.23-7.98-3.8-11.43-7.22-.55-.54-1.23-.93-1.97-1.13-2.11-.56-6.06-2.3-8.84-7.71-.11-.21-.31-.34-.55-.34h0c-.23,0-.43,.13-.54,.34-1.34,2.69-4.51,7.86-10.63,12.18-.68,.48-1.18,1.17-1.41,1.94-.66,2.17-2.53,5.95-7.74,6.84-.69,.12-1.24,.7-1.33,1.42l-.39,3.18c-.03,.27-.27,.46-.54,.44l-5.38-.48c-.13-.01-.26-.08-.34-.18l-1.92-2.32c-.06-.08-.1-.17-.11-.28l-1.27-14.82c-.04-.24-3.67-27.18,23.63-35.81-.39-.7-.9-2-.9-4.11,0-.23,.16-.43,.38-.49,.23-.05,.46,.06,.56,.26,.07,.13,1.74,3.23,7.23,1.99,1.09-.24,1.98-.4,2.81-.47,8.08-.77,35.15-1.39,43.82,22.87,.02,.07,1.59,5.08,4.61,7.34,.13,.1,.2,.25,.2,.41s-.09,.31-.22,.4c-.77,.51-2.42,1.08-3.98,.3,.63,4.32,2.18,18.97-4.55,27.03-.05,.06-.11,.1-.17,.13l-5.7,2.62c-.07,.03-.14,.05-.21,.05h-.01Zm-35.91-31.77c.61,0,1.16,.34,1.44,.88,2.6,5.07,6.26,6.69,8.21,7.2,.91,.24,1.75,.72,2.42,1.38,3.34,3.3,8.41,5.81,11.13,7.01,1.6,.7,2.89,1.92,3.63,3.42,2.93,5.87,9.22,8.72,9.28,8.75,.18,.08,.3,.26,.3,.46v1.38l4.88-2.25c7.39-9,4.1-27.15,4.07-27.33-.04-.22,.06-.43,.26-.53s.43-.07,.59,.09c1.11,1.11,2.38,.92,3.12,.64-2.87-2.6-4.29-7.12-4.35-7.32-8.42-23.56-34.87-22.94-42.78-22.19-.78,.07-1.63,.22-2.68,.45-3.9,.88-6.14-.23-7.3-1.24,.26,1.8,.94,2.53,.95,2.54,.12,.13,.17,.31,.12,.48-.04,.17-.17,.3-.34,.35-27.16,8.15-23.61,34.67-23.57,34.94l1.26,14.7,1.69,2.04,4.69,.42,.33-2.7c.14-1.15,1.03-2.09,2.15-2.28,4.67-.8,6.36-4.19,6.95-6.14,.3-.98,.93-1.86,1.79-2.47,5.95-4.19,9.02-9.19,10.32-11.8,.27-.55,.82-.89,1.42-.89h.02Z" fill="#002346"></path>
  </g>
  <ellipse cx="520.88" cy="297.62" rx="2.19" ry="2.99" fill="#002346"></ellipse>
  <ellipse cx="548.79" cy="299.61" rx="2.19" ry="2.99" fill="#002346"></ellipse>
  <path d="M527.86,283.96c-.17,0-.33-.08-.42-.23-.04-.05-1.96-2.8-8.59-.59-.26,.09-.54-.05-.63-.32-.09-.26,.05-.55,.32-.63,7.46-2.49,9.66,.86,9.75,1.01,.15,.23,.08,.54-.16,.69-.08,.05-.17,.08-.26,.08h-.01Z" fill="#002346"></path>
  <path d="M555.77,286.75c-.11,0-.22-.03-.31-.11-5.22-4.1-9.6-1.29-9.78-1.17-.23,.15-.54,.09-.69-.14s-.09-.54,.14-.69c.05-.03,5.16-3.34,10.95,1.22,.22,.17,.25,.48,.08,.7-.1,.13-.25,.19-.39,.19Z" fill="#002346"></path>
  <path d="M534.24,313.87c-.13,0-.26-.05-.35-.15-.2-.2-.2-.51,0-.71,1.69-1.69,3.38-4.03,1.83-5.59-1.78-1.79-2.51-4.22-1.94-6.5,.46-1.82,1.18-3.27,1.21-3.33,.12-.25,.42-.35,.67-.22,.25,.12,.35,.42,.22,.67,0,.01-.7,1.42-1.13,3.13-.48,1.93,.14,4.01,1.67,5.55,.96,.97,2,3.17-1.83,7-.1,.1-.23,.15-.35,.15h0Z" fill="#002346"></path>
  <path d="M534.41,324.92c-5.98,0-10-3.13-10.06-3.18-.21-.17-.25-.49-.08-.7,.17-.21,.49-.25,.7-.08,.32,.25,7.85,6.1,17.79,.75,.24-.13,.55-.04,.68,.2,.13,.24,.04,.55-.2,.68-3.21,1.73-6.21,2.33-8.84,2.33h.01Z" fill="#002346"></path>
  <g>
    <path d="M572.76,307.76c-1.18,4.81-4.65,8.1-7.75,7.35-.09-.02-.18-.05-.28-.08,.14-1.16,.21-2.35,.21-3.55v-12.47c1.34-1.16,2.87-1.69,4.32-1.34,3.1,.76,4.67,5.28,3.49,10.09h.01Z" fill="#f2b3c1"></path>
    <path d="M565.9,315.72c-.34,0-.67-.04-1.01-.12-.11-.03-.22-.06-.32-.09-.22-.08-.36-.3-.33-.53,.14-1.15,.21-2.33,.21-3.49v-12.47c0-.15,.06-.28,.17-.38,1.51-1.31,3.21-1.82,4.77-1.44,1.67,.41,2.99,1.77,3.7,3.85,.69,2,.74,4.43,.15,6.85-1.12,4.57-4.27,7.83-7.34,7.83h0Zm-.62-1.07c2.79,.55,5.9-2.55,6.99-7.01h0c.55-2.24,.5-4.47-.13-6.28-.6-1.74-1.67-2.88-3-3.2-1.19-.29-2.49,.1-3.7,1.08v12.24c0,1.06-.06,2.12-.17,3.18h.01Z" fill="#002346"></path>
  </g>
  <g>
    <path d="M505.13,294.81v15.72c-.26,.12-.54,.21-.83,.27-3.13,.63-6.46-2.8-7.43-7.66-.97-4.86,.77-9.31,3.91-9.93,1.5-.3,3.05,.33,4.35,1.6h0Z" fill="#f2b3c1"></path>
    <path d="M503.54,311.38c-1.42,0-2.86-.69-4.13-2-1.47-1.52-2.55-3.69-3.04-6.14-.49-2.44-.33-4.87,.44-6.83,.8-2.04,2.17-3.35,3.86-3.69,1.61-.33,3.31,.29,4.8,1.73,.1,.09,.15,.22,.15,.36v15.72c0,.19-.11,.37-.29,.45-.29,.13-.6,.24-.94,.31-.28,.06-.57,.09-.86,.09h.01Zm-2.02-17.74c-.22,0-.44,.02-.65,.06-1.34,.27-2.46,1.36-3.13,3.07-.7,1.79-.84,4.02-.39,6.27,.45,2.26,1.44,4.26,2.78,5.64,1.28,1.32,2.72,1.9,4.07,1.63,.15-.03,.29-.07,.43-.12v-15.17c-.99-.91-2.07-1.39-3.11-1.39h0Z" fill="#002346"></path>
  </g>
  <path d="M528.08,271.49c-.21,0-.4-.13-.47-.33-.07-.2-1.71-4.96,2.3-10.9,.16-.23,.47-.29,.69-.13,.23,.15,.29,.47,.13,.69-3.73,5.52-2.21,9.96-2.19,10,.09,.26-.04,.55-.3,.64-.06,.02-.11,.03-.17,.03h0Z" fill="#002346"></path>
  <path d="M511.91,287.15c-.21,0-.4-.13-.47-.34-.09-.26,.05-.55,.32-.63,3.4-1.13,5.45-3.5,5.47-3.52,.18-.21,.5-.23,.71-.06,.21,.18,.24,.49,.06,.7-.09,.1-2.24,2.59-5.92,3.82-.05,.02-.11,.03-.16,.03h-.01Z" fill="#002346"></path>
  <g>
    <path d="M600.83,586.53s.8,4.39,1.6,7.58c0,0,1.2,2.39,4.39,1.2,0,0,3.59-.8,1.2-13.56,0,0-2.79-9.57,1.6-6.38,0,0,5.58,2.79,5.98,8.77v7.52c0,1.66-.73,3.25-2,4.32-1.7,1.44-4.38,3.36-7.57,4.51" fill="#f2b3c1"></path>
    <path d="M606.02,600.99c-.21,0-.4-.13-.47-.33-.09-.26,.04-.55,.3-.64,3.14-1.12,5.77-3.02,7.42-4.42,1.16-.98,1.82-2.41,1.82-3.94v-7.52c-.38-5.6-5.65-8.3-5.71-8.33-.82-.59-1.25-.66-1.42-.55-.66,.46-.26,3.66,.52,6.35,2.42,12.91-1.15,14.09-1.57,14.19-3.51,1.32-4.93-1.43-4.94-1.46-.02-.03-.03-.07-.04-.1-.79-3.17-1.59-7.56-1.6-7.61-.05-.27,.13-.53,.4-.58s.53,.13,.58,.4c0,.04,.79,4.35,1.57,7.48,.17,.28,1.22,1.86,3.74,.91,.08-.02,3.11-1.11,.88-13-.42-1.42-1.69-6.3-.13-7.4,.91-.64,2.11,.23,2.51,.52,.17,.08,5.77,2.95,6.19,9.14v7.56c0,1.82-.79,3.53-2.18,4.7-1.71,1.45-4.45,3.42-7.73,4.59-.06,.02-.11,.03-.17,.03h.03Z" fill="#002346"></path>
  </g>
  <g>
    <path d="M359.95,353.85s-10.94,12.67-25.88,2.65c-.75-.5-1.24-1.29-1.41-2.17-.45-2.43-1.97-8.36-6.91-18.78-1.36-2.87-2.34-5.92-2.83-9.06-1.43-9.05-2.61-27.65,7.14-45.42,0,0,7.58-18.34,28.31-17.94,0,0,23.53-14.36,43.07,13.96,0,0,15.51,17.78,14.47,42.66-.04,1.01-.13,2.01-.25,3.01-.4,3.42-1.36,14.59,2.5,18.52,.82,.83,.66,2.22-.29,2.9-3.61,2.61-10.76,7.58-16.26,10.15-1.08,.51-2.27,.74-3.47,.7-.9-.03-2.02,.2-2.49,1.4-.06,.16-.3,.12-.32-.04l-1.05-7.33s13.84-13.4,6.11-31.32l-3.62-8.27-17.26-6.86s-14.49-4.42-22.93-16.39c-.71-1-2.12-1.21-3.09-.46-2.75,2.14-7.47,6.75-7.23,12.95,.07,1.73,.09,3.45-.04,5.18-.4,5.15-1.56,14.53-4.94,20.16l6.6,15.86s2.48,8.16,12.07,13.94Z" fill="#002346"></path>
    <path d="M345.59,360.83c-3.51,0-7.5-1.03-11.8-3.92-.84-.56-1.43-1.47-1.62-2.5-.48-2.57-2.02-8.42-6.87-18.66-1.42-2.99-2.38-6.08-2.88-9.19-1.49-9.46-2.55-27.97,7.2-45.74,.05-.14,7.76-18.21,28.09-18.21h.53c1.94-1.09,24.78-13.11,43.61,14.18,.12,.13,15.6,18.18,14.56,42.97-.04,.93-.12,1.93-.25,3.04-.38,3.29-1.35,14.34,2.36,18.11,.48,.49,.72,1.17,.66,1.86-.06,.72-.43,1.38-1.02,1.8-3.75,2.7-10.85,7.62-16.34,10.2-1.14,.53-2.4,.79-3.7,.75-1.04-.03-1.71,.33-2.01,1.09-.12,.28-.39,.45-.7,.41-.3-.04-.54-.27-.58-.57l-1.05-7.33c-.02-.16,.03-.32,.15-.43,.14-.13,13.49-13.38,6-30.76l-3.54-8.08-17.07-6.79c-.11-.03-14.72-4.6-23.16-16.57-.26-.37-.66-.62-1.11-.68-.46-.07-.9,.05-1.26,.33-2.73,2.13-7.27,6.59-7.04,12.53,.06,1.44,.1,3.33-.04,5.23-.39,5.09-1.54,14.42-4.88,20.17l6.5,15.63c.04,.13,2.57,8.1,11.87,13.71,.13,.08,.21,.2,.24,.35,.02,.15-.02,.29-.12,.41-.08,.09-5.89,6.66-14.74,6.66h.01Zm12.13-97.21c-19.66,0-27.12,17.46-27.2,17.64-9.62,17.55-8.58,35.82-7.11,45.15,.48,3.02,1.42,6.02,2.79,8.92,4.9,10.34,6.46,16.28,6.95,18.9,.14,.76,.58,1.44,1.19,1.85,12.99,8.71,22.73,.01,24.82-2.13-9.22-5.78-11.67-13.57-11.77-13.9l-6.58-15.82c-.06-.15-.05-.31,.03-.45,3.33-5.55,4.48-14.88,4.87-19.95,.14-1.85,.1-3.71,.04-5.12-.25-6.39,4.55-11.11,7.42-13.36,.58-.45,1.3-.64,2.02-.53,.73,.11,1.36,.5,1.78,1.1,8.24,11.68,22.53,16.16,22.67,16.2l17.3,6.88c.12,.05,.22,.14,.27,.26l3.62,8.27c7.28,16.9-4.41,29.99-6.04,31.69l.89,6.19c.56-.62,1.39-.93,2.47-.89,1.12,.03,2.24-.19,3.24-.65,5.42-2.54,12.46-7.42,16.18-10.1,.35-.25,.57-.64,.61-1.07,.03-.41-.1-.79-.38-1.07-3.91-3.98-3.15-14.56-2.64-18.93,.13-1.09,.21-2.06,.25-2.97,1.02-24.38-14.2-42.14-14.35-42.31-19.07-27.62-41.49-14.43-42.43-13.86-.08,.05-.18,.07-.27,.07h-.64Zm38.11,92.68h0Z" fill="#002346"></path>
  </g>
  <path d="M340.04,335.8c-.21,0-.41-.14-.48-.35-2.46-7.77,1.21-11.6,1.37-11.76,.19-.2,.51-.2,.71,0,.2,.19,.2,.51,0,.71-.14,.14-3.39,3.59-1.13,10.76,.08,.26-.06,.54-.33,.63-.05,.02-.1,.02-.15,.02h.01Z" fill="#002346"></path>
  <path d="M405.43,318.66c-.19,0-.37-.11-.45-.29-2.68-5.74-8.36-8.42-8.42-8.45-.25-.12-.36-.41-.24-.66s.41-.36,.66-.24c.25,.11,6.07,2.86,8.9,8.93,.12,.25,0,.55-.24,.66-.07,.03-.14,.05-.21,.05h0Z" fill="#002346"></path>
  <g>
    <path d="M359.95,353.85l-6.01,6.45c-1.46,1.57-1.94,3.83-1.22,5.86,2.1,5.95,6.93,18.28,12.67,23.67,.27,.25,.7,.15,.83-.19l2.52-6.48s1.2-3.89,6.45-2.86c1.47,.29,2.88-.76,3.03-2.25h0s-13.86-3.26-16.65-11.64l-1.62-12.56Z" fill="#ff4c3040"></path>
    <path d="M365.74,390.47c-.25,0-.5-.1-.69-.27-5.7-5.35-10.47-17.25-12.8-23.87-.78-2.21-.27-4.65,1.33-6.37l6.74-7.23,1.76,13.62c2.65,7.92,16.13,11.19,16.27,11.22l.43,.1-.04,.44c-.09,.85-.53,1.63-1.22,2.15-.69,.51-1.56,.71-2.4,.54-4.72-.93-5.83,2.38-5.88,2.52l-2.53,6.51c-.12,.31-.39,.55-.71,.62-.08,.02-.15,.03-.23,.03Zm-6.15-35.5l-5.29,5.67c-1.35,1.45-1.77,3.5-1.11,5.35,2.31,6.53,7,18.27,12.54,23.47l2.54-6.49s1.39-4.27,7.01-3.17c.56,.11,1.15-.02,1.61-.37,.35-.26,.61-.62,.74-1.03-2.51-.67-13.96-4.09-16.54-11.85l-1.5-11.6Z" fill="#002346"></path>
  </g>
  <g>
    <path d="M382.36,377.81s10.5,2.5,10.32,13.01c0,.11,.13,.17,.2,.09,1.61-1.69,11.87-13.06,13.35-28.49l-6.31-7.4s-3.11-.68-4.58,1.36c0,0,.12,3.64,4.11,6.43,0,0-2.79,12.36-17.09,14.99h0Z" fill="#ff4c3040"></path>
    <path d="M392.8,391.45c-.08,0-.16-.01-.23-.05-.24-.1-.39-.33-.39-.59,.17-9.97-9.52-12.41-9.93-12.51l-.38-.09v-.82s.41-.08,.41-.08c12.55-2.31,16.05-12.38,16.61-14.29-3.87-2.87-4.03-6.46-4.04-6.62v-.17s.09-.14,.09-.14c1.64-2.28,4.95-1.59,5.09-1.56l.16,.04,6.56,7.69-.02,.21c-1.47,15.43-11.49,26.69-13.48,28.79-.12,.13-.28,.19-.44,.19Zm-.28-.88s0,0,0,0c0,0,0,0,0,0Zm-8.33-12.65c2.93,1.21,8.65,4.51,8.98,11.95,2.88-3.22,11.16-13.55,12.55-27.28l-6.06-7.1c-.59-.09-2.69-.3-3.8,1.05,.08,.73,.6,3.57,3.88,5.87l.28,.19-.07,.33c-.03,.12-2.79,11.69-15.75,14.99Z" fill="#002346"></path>
  </g>
  <g>
    <path d="M320.1,437.79s4.79,16.75,14.36,20.74l1.2-3.99s3.93,.4-.43,7.78l-7.55,11.37" fill="#ff4d30"></path>
    <path d="M327.67,474.18c-.1,0-.19-.03-.28-.08-.23-.15-.29-.46-.14-.69l7.55-11.36c2.3-3.89,2.1-5.59,1.77-6.26-.16-.32-.39-.51-.59-.61l-1.05,3.5c-.04,.14-.14,.25-.26,.31-.13,.06-.28,.06-.41,0-9.68-4.03-14.45-20.37-14.64-21.06-.08-.27,.08-.54,.34-.62,.27-.08,.54,.08,.62,.34,.05,.16,4.66,15.96,13.56,20.19l1.03-3.44c.07-.23,.28-.38,.53-.35,.05,0,1.18,.13,1.76,1.27,.76,1.5,.15,3.94-1.81,7.25l-7.56,11.39c-.1,.14-.26,.22-.42,.22h0Z" fill="#002346"></path>
  </g>
  <path d="M377.47,300.1c-.15,0-.3-.07-.4-.2-.17-.22-.12-.53,.1-.7,.19-.14,4.8-3.52,10.1-2.05,.27,.07,.42,.35,.35,.62s-.34,.42-.62,.35c-4.84-1.34-9.19,1.85-9.23,1.89-.09,.07-.2,.1-.3,.1h0Z" fill="#002346"></path>
  <path d="M564.54,451.05c-.23,0-.43-.16-.49-.39l-8.77-38.68c-.06-.27,.11-.54,.38-.6s.54,.11,.6,.38l8.77,38.68c.06,.27-.11,.54-.38,.6-.04,0-.07,.01-.11,.01Z" fill="#002346"></path>
  <g id="b">
    <path d="M752.35,643.15h-15.92c-.28,0-.5-.22-.5-.5s.22-.5,.5-.5h15.92c.28,0,.5,.22,.5,.5s-.22,.5-.5,.5Z" fill="#002346"></path>
    <path d="M725.83,643.15H113.41c-.28,0-.5-1.22-.5-1.5s.22-.5,.5-.5H725.83c.28,0,.5,.22,.5,.5s-.22,1.5-.5,1.5Z" fill="#002346"></path>
  </g>
  <path d="M600.37,595.01h-.36c-.28-.01-.49-.25-.48-.52,.01-.28,.24-.5,.52-.48,.08,0,7.79,.27,10.58-4.93,.3-.56,.48-1.21,.55-1.93l.86-9.66c.02-.28,.28-.49,.54-.45,.28,.02,.48,.27,.45,.54l-.86,9.66c-.08,.86-.3,1.64-.66,2.32-2.76,5.14-9.49,5.46-11.14,5.46h0Z" fill="#002346"></path>
  <g>
    <path d="M608.81,588.13s.4,5.98-1.99,7.18c0,0-2.79,1.2-4.39-1.2" fill="#f2b3c1"></path>
    <path d="M605.25,596.1c-1.1,0-2.36-.4-3.24-1.72-.15-.23-.09-.54,.14-.69,.23-.15,.54-.09,.69,.14,1.34,2.01,3.68,1.06,3.78,1.01,1.69-.85,1.79-5.11,1.69-6.69-.02-.28,.19-.51,.47-.53,.28-.01,.51,.19,.53,.47,.04,.65,.34,6.35-2.27,7.66-.44,.19-1.08,.35-1.79,.35h0Z" fill="#002346"></path>
  </g>
  <path d="M328.35,384.65c-.24,0-.47-.15-.56-.39l-25.12-67.39c-.12-.31,.04-.65,.35-.77,.31-.11,.65,.04,.77,.35l25.12,67.39c.12,.31-.04,.65-.35,.77-.07,.03-.14,.04-.21,.04Z" fill="#002346"></path>
  <g>
    <path d="M316.57,351.7c-26.19-9.51-31.53,37.49-57.73,27.96-3.99-10.83-7.98-21.65-11.98-32.48,26.19,9.53,31.54-37.47,57.73-27.96,3.99,10.83,7.98,21.65,11.98,32.48h0Z" fill="#001f80"></path>
    <g opacity=".2">
      <path d="M246.86,347.18c2.22,.81,4.29,1.21,6.24,1.27,.04,.39,.08,.79,.15,1.18,.63,3.89,2.9,7.08,5.95,9.05,5.41,3.5,12.52,2.85,18.5,.66,4.78-1.75,9.28-4.45,13.84-6.82,4.91-2.56,10.06-5.07,15.44-5.83,2.81-.4,5.51-.17,8,.69l1.59,4.32c-26.19-9.51-31.53,37.49-57.73,27.96-3.99-10.83-7.98-21.65-11.98-32.48h0Z"></path>
    </g>
    <path d="M281.72,349.84c7.92-9.41,15.82-18.89,28.97-14.1-2.03-5.51-4.06-11.02-6.1-16.54-13.16-4.79-21.05,4.69-28.97,14.1,2.03,5.51,4.06,11.02,6.1,16.54Z" fill="#fff"></path>
    <path d="M278.06,339.92c3.49-4.14,6.97-8.3,10.9-11.25-.81-2.21-1.63-4.41-2.44-6.62,1.07-.8,2.18-1.52,3.33-2.12,.81,2.21,1.63,4.41,2.44,6.62,4.2-2.19,8.96-2.84,14.73-.74,.41,1.1,.81,2.2,1.22,3.31-5.78-2.1-10.54-1.45-14.73,.74,.81,2.2,1.63,4.41,2.44,6.61-1.15,.6-2.25,1.31-3.33,2.12-.81-2.2-1.63-4.41-2.44-6.61-3.93,2.95-7.41,7.1-10.9,11.25-.41-1.1-.81-2.2-1.22-3.31Z" fill="#ff161f"></path>
    <g opacity=".2">
      <path d="M302.36,320.04l9.18,25.98s-9.99-19.59-9.18-25.98Z"></path>
    </g>
    <path d="M305.31,321.13c.44,1.2,.88,2.4,1.33,3.6-2.87-1.04-5.49-1.41-7.91-1.25,1.98-1.36,4.16-2.2,6.59-2.35h0Z" fill="#001f80"></path>
    <path d="M300.07,318.07s.08,.01,.12,.02c-2.82,1.1-5.26,3.21-7.45,5.99-.58-1.57-1.15-3.13-1.73-4.7,2.74-1.21,5.72-1.75,9.07-1.32h0Z" fill="#001f80"></path>
    <path d="M294.96,324.17c2.75-2.9,5.9-4.73,9.64-4.96,.16,.43,.32,.86,.48,1.3-2.85,.18-5.35,1.29-7.6,3.09-.86,.13-1.7,.32-2.52,.57h0Z" fill="#ff161f"></path>
    <path d="M287.85,335.38c-2.18,4.47-4.16,9.47-6.14,14.46-.16-.43-.32-.86-.48-1.3,1.51-3.81,3.01-7.62,4.61-11.2,.66-.68,1.33-1.34,2.01-1.97h0Z" fill="#ff161f"></path>
    <path d="M309.99,333.84c-.44-1.2-.88-2.4-1.33-3.6-2.87-1.04-5.49-1.41-7.91-1.25,2.87,1.04,5.93,2.6,9.24,4.85Z" fill="#001f80"></path>
    <path d="M306.17,334.63s.08,0,.11,.01c-3.97-2.03-7.57-3.05-10.91-3.39,.58,1.57,1.15,3.13,1.73,4.7,2.74-1.21,5.72-1.75,9.07-1.32Z" fill="#001f80"></path>
    <path d="M297.05,329.68c4.09,.79,8.57,2.63,13.64,6.06-1.03-.37-2.02-.66-2.99-.86-4.63-2.61-8.76-3.86-12.56-4.22-.03-.07-.06-.15-.08-.22,.65-.29,1.31-.54,1.99-.75h0Z" fill="#ff161f"></path>
    <path d="M276.33,335.24c.44,1.2,.89,2.4,1.33,3.6,1.73-2.05,3.45-4.11,5.23-6.02-2.22,.71-4.39,1.57-6.56,2.42h0Z" fill="#001f80"></path>
    <path d="M278.48,329.93s-.05,.06-.07,.09c2.84-1.05,5.72-1.96,8.77-2.43-.58-1.57-1.15-3.13-1.73-4.7-2.45,2.01-4.73,4.45-6.96,7.03h0Z" fill="#001f80"></path>
    <path d="M275.63,333.31c.59-.71,1.19-1.41,1.79-2.11,3.23-1.26,6.5-2.41,9.99-2.96,.02,.06,.05,.12,.07,.19-.6,.49-1.19,1.01-1.77,1.55-3.48,.77-6.78,2.06-10.07,3.34h-.01Z" fill="#ff161f"></path>
    <path d="M281.01,347.95c-.44-1.2-.89-2.4-1.33-3.6,1.73-2.05,3.45-4.11,5.23-6.02-1.34,3.11-2.62,6.37-3.91,9.62h0Z" fill="#001f80"></path>
    <path d="M284.59,346.5s-.05,.06-.08,.08c1.68-4.18,3.41-8.22,5.31-11.81,.58,1.57,1.15,3.13,1.73,4.7-2.45,2.01-4.73,4.45-6.96,7.03h0Z" fill="#001f80"></path>
    <g>
      <g>
        <polygon points="260.25 359.19 261.56 360.83 263.42 360.09 262.37 361.84 263.69 363.48 261.73 362.92 260.69 364.67 260.52 362.58 258.56 362.02 260.41 361.28 260.25 359.19" fill="#ff161f"></polygon>
        <path d="M264.16,363.79l-2.35-.66-1.25,2.1-.2-2.51-2.35-.66,2.22-.89-.2-2.51,1.58,1.96,2.22-.89-1.25,2.1,1.58,1.96h0Zm-2.51-1.07l1.57,.44-1.06-1.31,.84-1.4-1.49,.59-1.06-1.31,.14,1.68-1.49,.59,1.57,.44,.14,1.68,.84-1.4h0Z" fill="#fff"></path>
      </g>
      <g>
        <polygon points="264.45 348.64 265.77 350.28 267.62 349.54 266.58 351.29 267.9 352.93 265.94 352.37 264.89 354.12 264.72 352.03 262.76 351.47 264.62 350.74 264.45 348.64" fill="#ff161f"></polygon>
        <path d="M268.37,353.24l-2.35-.66-1.25,2.1-.2-2.51-2.35-.66,2.22-.89-.2-2.51,1.58,1.96,2.22-.89-1.25,2.1,1.58,1.96h0Zm-2.51-1.07l1.57,.44-1.06-1.31,.84-1.4-1.49,.59-1.06-1.31,.14,1.68-1.49,.59,1.57,.44,.14,1.68,.84-1.4h0Z" fill="#fff"></path>
      </g>
      <g>
        <polygon points="272.87 351.78 274.18 353.42 276.04 352.68 275 354.43 276.31 356.06 274.35 355.51 273.31 357.26 273.14 355.17 271.18 354.61 273.03 353.87 272.87 351.78" fill="#ff161f"></polygon>
        <path d="M276.78,356.38l-2.35-.66-1.25,2.1-.2-2.51-2.35-.66,2.22-.89-.2-2.51,1.58,1.96,2.22-.89-1.25,2.1,1.58,1.96h0Zm-2.51-1.07l1.57,.44-1.06-1.31,.84-1.4-1.49,.59-1.06-1.31,.13,1.68-1.49,.59,1.57,.44,.14,1.68,.84-1.4h0Z" fill="#fff"></path>
      </g>
      <g>
        <polygon points="272.27 368.29 273.64 370 275.59 369.23 274.5 371.06 275.87 372.77 273.82 372.19 272.73 374.02 272.55 371.83 270.5 371.25 272.44 370.48 272.27 368.29" fill="#ff161f"></polygon>
        <path d="M276.34,373.09l-2.44-.69-1.3,2.18-.21-2.61-2.44-.69,2.31-.92-.21-2.61,1.64,2.04,2.31-.92-1.3,2.18,1.64,2.04h0Zm-2.6-1.1l1.66,.47-1.12-1.39,.89-1.49-1.58,.63-1.12-1.39,.14,1.78-1.58,.63,1.66,.47,.14,1.78,.89-1.49h.02Z" fill="#fff"></path>
      </g>
    </g>
  </g>
  <g>
    <path d="M320.1,437.79l9.81-12.01s-10.21-9.53-9.41-13.91c0,0-3.99-2.39-2.79-7.98,0,0-3.99-1.99-1.2-5.58l3.99-5.18s-8.77-9.57-5.18-14.36c0,0,2.39-2.79,10.37,.4,0,0,0-2.51,1.4-4.27,.79-.99,2.27-1.05,3.15-.14,.77,.8,1.59,2.34,2.23,5.21,0,0,.4,3.99,5.98,10.37,0,0,12.76,11.56,5.18,37.48l-9.17,30.71s-7.98-1.6-14.36-20.74h0Z" fill="#f2b3c1"></path>
    <path d="M334.45,459.03h-.1c-.34-.07-8.33-1.87-14.73-21.07-.05-.16-.02-.34,.09-.47l9.52-11.65c-1.77-1.7-9.57-9.46-9.26-13.72-.9-.69-3.67-3.21-2.82-7.96-.58-.37-1.73-1.26-2.05-2.65-.25-1.12,.09-2.3,1.02-3.49l3.73-4.85c-1.53-1.75-8.39-10.07-4.94-14.68,.12-.15,2.61-2.9,10.32-.01,.1-.93,.43-2.57,1.46-3.87,.47-.58,1.17-.94,1.91-.97,.77-.03,1.47,.26,1.98,.8,.99,1.04,1.79,2.88,2.36,5.44,.01,.1,.49,4,5.87,10.15,.09,.08,12.87,12.03,5.29,37.95l-9.17,30.71c-.06,.22-.26,.36-.48,.36v-.02Zm-13.79-21.13c5.33,15.8,11.75,19.32,13.46,20l9.02-30.21c7.39-25.28-4.92-36.86-5.04-36.97-5.66-6.47-6.13-10.52-6.14-10.69-.65-2.91-1.5-4.28-2.1-4.91-.31-.33-.75-.51-1.21-.49-.46,.02-.89,.24-1.18,.6-1.27,1.59-1.29,3.93-1.29,3.96,0,.17-.08,.32-.22,.41s-.31,.11-.46,.05c-7.46-2.98-9.79-.56-9.81-.53-3.27,4.37,5.09,13.59,5.18,13.69,.16,.18,.18,.45,.03,.64l-3.99,5.18c-.74,.95-1.02,1.84-.83,2.65,.31,1.38,1.84,2.17,1.86,2.18,.2,.1,.31,.33,.26,.55-1.1,5.15,2.41,7.35,2.56,7.44,.18,.11,.27,.31,.23,.52-.61,3.38,6.47,10.86,9.26,13.46,.19,.18,.21,.48,.05,.68l-9.63,11.79h0Z" fill="#002346"></path>
  </g>
  <path d="M335.25,396.42c-.11,0-.21-.03-.3-.1-.22-.17-.26-.48-.09-.7,.56-.73,.74-1.42,.53-2.1-.48-1.58-3.02-3.21-7.15-4.6-1.64-.55-3.42-.06-4.54,1.25l-2.82,3.29c-.18,.21-.5,.23-.71,.05-.21-.18-.23-.5-.05-.71l2.82-3.29c1.39-1.62,3.59-2.22,5.62-1.54,3.14,1.05,7.04,2.82,7.78,5.25,.3,1,.07,2.01-.69,3-.1,.13-.25,.2-.4,.2h0Z" fill="#002346"></path>
  <path d="M332.97,390.86h0c-.28,0-.5-.23-.49-.51,.11-6-6.99-10.71-7.07-10.76-.23-.15-.3-.46-.15-.69s.46-.3,.69-.15c.31,.2,7.64,5.06,7.52,11.62,0,.27-.23,.49-.5,.49h0Z" fill="#002346"></path>
  <path d="M325.68,388.84c-.15,0-.3-.07-.4-.2-2.17-2.86-6.44-3.79-6.48-3.8-.27-.06-.44-.32-.39-.59,.06-.27,.32-.44,.59-.39,.19,.04,4.68,1.02,7.08,4.17,.17,.22,.12,.53-.1,.7-.09,.07-.2,.1-.3,.1h0Z" fill="#002346"></path>
  <path d="M340.43,407.98c-.15,0-.29-.06-.39-.19-.17-.22-.14-.53,.08-.7,1.11-.89-1.01-4.8-2.88-7.29-2.94-4.77-6.81-3.11-6.97-3.03l-9.94,5.17c-.24,.13-.55,.03-.67-.21-.13-.24-.03-.55,.21-.67l9.97-5.18c.07-.03,4.85-2.12,8.23,3.37,.82,1.09,4.94,6.82,2.68,8.63-.09,.07-.2,.11-.31,.11h0Z" fill="#002346"></path>
  <path d="M336.45,415.16c-.17,0-.34-.09-.43-.25-.14-.24-.06-.54,.18-.69,2.19-1.29,3.41-2.76,3.62-4.36,.27-2.05-1.13-3.97-2.36-5.21-.63-.64-1.55-.87-2.41-.6l-10.01,3.11c-.27,.08-.54-.07-.63-.33-.08-.26,.07-.54,.33-.63l10.01-3.11c1.22-.38,2.53-.05,3.42,.86,1.38,1.41,2.96,3.59,2.63,6.04-.25,1.92-1.63,3.63-4.1,5.09-.08,.05-.17,.07-.25,.07h0Z" fill="#002346"></path>
  <path d="M328.47,414.36c-.18,0-.35-.1-.44-.27-.13-.24-.04-.55,.21-.68l7.58-3.99c.24-.13,.55-.04,.67,.21,.13,.24,.04,.55-.21,.68l-7.58,3.99c-.07,.04-.15,.06-.23,.06Z" fill="#002346"></path>
  <path d="M338.84,420.74c-.16,0-.32-.08-.41-.22l-5.98-8.77c-.16-.23-.1-.54,.13-.69s.54-.1,.69,.13l5.98,8.77c.16,.23,.1,.54-.13,.69-.09,.06-.18,.09-.28,.09Z" fill="#002346"></path>
</svg>
